<?xml version="1.0" standalone="no"?><!DOCTYPE svg PUBLIC "-//W3C//DTD SVG 1.1//EN" "http://www.w3.org/Graphics/SVG/1.1/DTD/svg11.dtd"><svg xmlns:xlink="http://www.w3.org/1999/xlink" version="1.1" id="Layer_1" x="0px" y="0px" viewBox="0 0 500 500" style="enable-background:new 0 0 500 500;" xml:space="preserve" class="center-block svg replaced-svg" xmlns="http://www.w3.org/2000/svg"><defs xmlns="http://www.w3.org/1999/xhtml"><style type="text/css"><![CDATA[
.theiaStickySidebar::after { content: ""; display: table; clear: both; }
.gsc-control-cse { font-family: Arial, sans-serif; border-color: rgb(238, 238, 238); background-color: rgb(238, 238, 238); }
.gsc-control-cse .gsc-table-result { font-family: Arial, sans-serif; }
input.gsc-input { border-color: rgb(217, 217, 217); }
input.gsc-search-button { border-color: rgb(102, 102, 102); background-color: rgb(206, 206, 206); }
.gsc-tabHeader.gsc-tabhInactive { border-color: rgb(233, 233, 233); background-color: rgb(233, 233, 233); }
.gsc-tabHeader.gsc-tabhActive { border-top-color: rgb(255, 153, 0); border-left-color: rgb(233, 233, 233); border-right-color: rgb(233, 233, 233); background-color: rgb(255, 255, 255); }
.gsc-tabsArea { border-color: rgb(233, 233, 233); }
.gsc-webResult.gsc-result, .gsc-results .gsc-imageResult { border-color: rgb(255, 255, 255); background-color: rgb(255, 255, 255); }
.gsc-webResult.gsc-result:hover, .gsc-imageResult:hover { border-color: rgb(255, 255, 255); background-color: rgb(255, 255, 255); }
.gsc-webResult.gsc-result.gsc-promotion:hover { border-color: rgb(255, 255, 255); background-color: rgb(255, 255, 255); }
.gs-webResult.gs-result a.gs-title:link, .gs-webResult.gs-result a.gs-title:link b, .gs-imageResult a.gs-title:link, .gs-imageResult a.gs-title:link b { color: rgb(0, 0, 204); }
.gs-webResult.gs-result a.gs-title:visited, .gs-webResult.gs-result a.gs-title:visited b, .gs-imageResult a.gs-title:visited, .gs-imageResult a.gs-title:visited b { color: rgb(0, 0, 204); }
.gs-webResult.gs-result a.gs-title:hover, .gs-webResult.gs-result a.gs-title:hover b, .gs-imageResult a.gs-title:hover, .gs-imageResult a.gs-title:hover b { color: rgb(0, 0, 204); }
.gs-webResult.gs-result a.gs-title:active, .gs-webResult.gs-result a.gs-title:active b, .gs-imageResult a.gs-title:active, .gs-imageResult a.gs-title:active b { color: rgb(0, 0, 204); }
.gsc-cursor-page { color: rgb(0, 0, 204); }
a.gsc-trailing-more-results:link { color: rgb(0, 0, 204); }
.gs-webResult .gs-snippet, .gs-imageResult .gs-snippet, .gs-fileFormatType { color: rgb(0, 0, 0); }
.gs-webResult div.gs-visibleUrl, .gs-imageResult div.gs-visibleUrl { color: rgb(0, 128, 0); }
.gs-webResult div.gs-visibleUrl-short { color: rgb(0, 128, 0); }
.gs-webResult div.gs-visibleUrl-short { display: none; }
.gs-webResult div.gs-visibleUrl-long { display: block; }
.gs-promotion div.gs-visibleUrl-short { display: none; }
.gs-promotion div.gs-visibleUrl-long { display: block; }
.gsc-cursor-box { border-color: rgb(255, 255, 255); }
.gsc-results .gsc-cursor-box .gsc-cursor-page { border-color: rgb(233, 233, 233); background-color: rgb(255, 255, 255); color: rgb(0, 0, 204); }
.gsc-results .gsc-cursor-box .gsc-cursor-current-page { border-color: rgb(255, 153, 0); background-color: rgb(255, 255, 255); color: rgb(0, 0, 204); }
.gsc-webResult.gsc-result.gsc-promotion { border-color: rgb(51, 102, 153); background-color: rgb(255, 255, 255); }
.gsc-completion-title { color: rgb(0, 0, 204); }
.gsc-completion-snippet { color: rgb(0, 0, 0); }
.gs-promotion a.gs-title:link, .gs-promotion a.gs-title:link *, .gs-promotion .gs-snippet a:link { color: rgb(0, 0, 204); }
.gs-promotion a.gs-title:visited, .gs-promotion a.gs-title:visited *, .gs-promotion .gs-snippet a:visited { color: rgb(0, 0, 204); }
.gs-promotion a.gs-title:hover, .gs-promotion a.gs-title:hover *, .gs-promotion .gs-snippet a:hover { color: rgb(0, 0, 204); }
.gs-promotion a.gs-title:active, .gs-promotion a.gs-title:active *, .gs-promotion .gs-snippet a:active { color: rgb(0, 0, 204); }
.gs-promotion .gs-snippet, .gs-promotion .gs-title .gs-promotion-title-right, .gs-promotion .gs-title .gs-promotion-title-right * { color: rgb(0, 0, 0); }
.gs-promotion .gs-visibleUrl, .gs-promotion .gs-visibleUrl-short { color: rgb(0, 128, 0); }
.gscb_a { display: inline-block; font-style: normal; font-variant: normal; font-weight: normal; font-stretch: normal; font-size: 27px; line-height: 13px; font-family: arial, sans-serif; }
.gsst_a .gscb_a { color: rgb(161, 185, 237); cursor: pointer; }
.gsst_a:hover .gscb_a, .gsst_a:focus .gscb_a { color: rgb(51, 102, 204); }
.gsst_a { display: inline-block; }
.gsst_a { cursor: pointer; padding: 0px 4px; }
.gsst_a:hover { text-decoration: none !important; }
.gsst_b { font-size: 16px; padding: 0px 2px; position: relative; user-select: none; white-space: nowrap; }
.gsst_e { opacity: 0.55; }
.gsst_a:hover .gsst_e, .gsst_a:focus .gsst_e { opacity: 0.72; }
.gsst_a:active .gsst_e { opacity: 1; }
.gsst_f { background: white; text-align: left; }
.gsst_g { background-color: white; border-width: 1px; border-style: solid; border-color: rgb(217, 217, 217) rgb(204, 204, 204) rgb(204, 204, 204); border-image: initial; box-shadow: rgba(0, 0, 0, 0.2) 0px 2px 4px; margin: -1px -3px; padding: 0px 6px; }
.gsst_h { background-color: white; height: 1px; margin-bottom: -1px; position: relative; top: -1px; }
.gsib_a { width: 100%; padding: 4px 6px 0px; }
.gsib_a, .gsib_b { vertical-align: top; }
.gssb_c { border: 0px; position: absolute; z-index: 989; }
.gssb_e { border-width: 1px; border-style: solid; border-color: rgb(217, 217, 217) rgb(204, 204, 204) rgb(204, 204, 204); border-image: initial; box-shadow: rgba(0, 0, 0, 0.2) 0px 2px 4px; cursor: default; }
.gssb_f { visibility: hidden; white-space: nowrap; }
.gssb_k { border: 0px; display: block; position: absolute; top: 0px; z-index: 988; }
.gsdd_a { border: none !important; }
.gsq_a { padding: 0px; }
.gsq_a { padding: 0px; }
.gscsep_a { display: none; }
.gssb_a { padding: 0px 7px; }
.gssb_a, .gssb_a td { white-space: nowrap; overflow: hidden; line-height: 22px; }
#gssb_b { font-size: 11px; color: rgb(51, 102, 204); text-decoration: none; }
#gssb_b:hover { font-size: 11px; color: rgb(51, 102, 204); text-decoration: underline; }
.gssb_g { text-align: center; padding: 8px 0px 7px; position: relative; }
.gssb_h { font-size: 15px; height: 28px; margin: 0.2em; -webkit-appearance: button; }
.gssb_i { background: rgb(238, 238, 238); }
.gss_ifl { visibility: hidden; padding-left: 5px; }
.gssb_i .gss_ifl { visibility: visible; }
a.gssb_j { font-size: 13px; color: rgb(51, 102, 204); text-decoration: none; line-height: 100%; }
a.gssb_j:hover { text-decoration: underline; }
.gssb_l { height: 1px; background-color: rgb(229, 229, 229); }
.gssb_m { color: rgb(0, 0, 0); background: rgb(255, 255, 255); }
.gsfe_a { border-width: 1px; border-style: solid; border-color: rgb(160, 160, 160) rgb(185, 185, 185) rgb(185, 185, 185); border-image: initial; box-shadow: rgba(0, 0, 0, 0.0980392) 0px 1px 2px inset; }
.gsfe_b { border: 1px solid rgb(77, 144, 254); outline: none; box-shadow: rgba(0, 0, 0, 0.298039) 0px 1px 2px inset; }
.gssb_a { padding: 0px 7px; }
.gssb_e { border: 0px; }
.gssb_l { margin: 5px 0px; }
#gsc-i-id1::-webkit-input-placeholder { font-size: 14px; }
#gsc-i-id1:focus::-webkit-input-placeholder { color: transparent; }
.gssb_c .gsc-completion-container { position: static; }
.gssb_c { z-index: 5000; }
.gsc-completion-container table { background: transparent; font-size: inherit; font-family: inherit; }
.gssb_a table, .gssb_a table tr, .gssb_a table tr td { padding: 0px; margin: 0px; border: 0px; }
#menufication-top { animation-duration: 0.001s; animation-name: insQ_100; }
.fancybox-margin { margin-right: 0px; }
.st0 { fill: rgb(255, 255, 255); }
.st0 { fill: rgb(255, 255, 255); }
.cls-1 { fill: rgb(255, 255, 255); }
.cls-1 { fill: rgb(255, 255, 255); stroke: rgb(255, 255, 255); stroke-miterlimit: 10; stroke-width: 2.5px; }
.recommended-groups-wrapper { display: none; }
.subscribed-groups-wrapper { display: none; }
.group-combine-wrapper { display: none; }
.expert-chat-wrapper { display: none; }
#subscribePopup::before { content: none; }
.password-field { display: none; }]]></style></defs>
<style type="text/css">
	.st0{fill:#FFFFFF;}
</style>
<title>community</title>
<g>
	<path class="st0" d="M171,399.8c0-17.4-0.1-34.8,0.1-52.3c0-3.5-1-5.5-4-7.6c-19-12.9-29.3-30.7-29.5-53.9   c-0.2-26.7-0.2-53.4,0-80.1c0.2-32,21.4-57.5,52.7-63.5c3.5-0.7,7.1-1,10.6-1c32.8-0.1,65.6-0.3,98.4,0   c30.7,0.3,55.9,21.2,62.3,51.2c0.9,4.5,1.4,9,1.4,13.6c0.1,26.6,0.2,53.1,0,79.7c-0.2,23.6-10.5,41.9-30.3,54.8   c-2.4,1.5-3.1,3.1-3.1,5.8c0.1,33.6,0.1,67.1,0,100.7c0,30.7-21.7,52.7-52.5,52.8c-20.5,0-41.1,0.5-61.6-0.6   c-23-1.3-43.3-22.4-44.2-45.4c-0.8-18-0.1-36-0.1-54L171,399.8z M196.1,391.8c0,18.4,0,36.8,0,55.3c0,15.9,10.7,26.6,26.6,26.6   c18.4,0,36.8,0,55.2,0c1.9,0,3.7-0.1,5.5-0.4c13-2.4,21.1-12.6,21.1-26.7c0-37,0-74,0-110.9c0-7.8,2.3-11.2,9.3-14.2   c15.5-6.6,23.7-18.5,24-35.3c0.4-27,0.3-54,0-81c-0.2-21.6-16.2-37.8-37.6-38.1c-32.9-0.4-65.9-0.4-98.8,0   c-21.8,0.3-37.6,15.8-37.9,37.1c-0.4,27.8-0.4,55.7,0,83.5c0.3,16,8.6,27.5,23.2,34c6.4,2.9,9.5,7.2,9.4,14.2   C196.1,354.6,196.1,373.2,196.1,391.8L196.1,391.8z"/>
	<path class="st0" d="M31.8,403.5c0-16.6-0.1-33.1,0.1-49.7c0.2-2.3-1-4.4-3-5.5C10,335.7-0.1,318.2,0,295.1c0.1-24.7,0-49.4,0-74.1   c0.1-35.8,26.7-62.6,62.4-62.7c16.5,0,33.1-0.1,49.6,0c9.7,0.1,15.9,8.3,13,17c-1.8,5.4-6.4,8.6-12.9,8.6c-17,0-34-0.1-50.9,0.1   c-17.7,0.2-31.8,12.1-35,29.3c-0.4,2.7-0.6,5.4-0.5,8.1c0,24.6,0,49.1,0,73.7c0,16.6,7.4,27.9,22.7,34.3c6.2,2.6,8.6,7.3,8.5,13.8   c-0.1,35.1-0.1,70.3,0,105.4c0,13,7.1,22.1,19,24.4c2,0.3,4,0.5,6,0.4c17.3,0,34.5-0.1,51.8,0c9.5,0.1,15.8,7.6,13.9,16.4   c-1.1,5.7-6.2,9.9-12,9.8c-20,0.1-40,0.7-59.9-0.5c-24.2-1.5-43.5-23-43.8-47.3C31.7,435.8,31.8,419.7,31.8,403.5z"/>
	<path class="st0" d="M442.6,397.9c0-17.6,0-35.1,0-52.7c0-6.8,2.9-11.2,9.2-13.9c14.3-6.1,22-17.1,22.1-32.6   c0.3-25.4,0.3-50.8,0-76.3c-0.2-20.5-15.4-35-35.9-35.1c-16.5-0.1-33.1,0.1-49.6,0c-8.8-0.1-14.3-6.3-13.4-14.6   c0.6-5.5,5-10.8,10.5-10.8c20.5-0.2,41.2-1.6,61.5,0.6c29.6,3.1,50.9,26.2,52.2,56c1.2,28.4,0.9,56.8-0.1,85.2   c-0.7,19.6-11,34.8-27.4,45.5c-2.7,1.8-3.4,3.5-3.4,6.5c0.1,31.1,0.1,62.3,0.1,93.4c0,29.6-20.8,50.3-50.4,50.3H367   c-8.4,0-13.5-4.5-13.6-12c-0.2-7.8,5.2-13.1,13.6-13.1c16.7-0.1,33.4,0,50.1,0c16.5,0,25.6-9.2,25.6-25.7   C442.6,431.6,442.6,414.7,442.6,397.9z"/>
	<path class="st0" d="M250.4,128.5c-35.5-0.1-64.2-28.9-64.1-64.4c0.1-35.5,28.9-64.2,64.4-64.1s64.2,28.9,64.1,64.4   c0,0,0,0.1,0,0.1c0,35.3-28.7,64-64,64C250.7,128.5,250.5,128.5,250.4,128.5z M250.7,102.8c21.2-0.2,38.3-17.3,38.4-38.5   c0-20.9-17.5-38.5-38.4-38.6c-21.1-0.1-38.7,17.5-38.6,38.8C212.3,85.7,229.5,102.8,250.7,102.8L250.7,102.8z"/>
	<path class="st0" d="M102,148c-33.9-0.2-61.4-27.6-61.5-61.5c0-33.9,28-61.9,61.8-61.8s61.4,27.9,61.4,61.7   c0,34-27.5,61.6-61.6,61.7C102.1,148,102,148,102,148z M102,51c-19.9,0-36,16.1-36,36s16.1,36,36,36s36-16.1,36-36   c0-0.1,0-0.2,0-0.2C138,67,122,51,102.3,51C102.2,51,102.1,51,102,51z"/>
	<path class="st0" d="M338,90.7c-0.1-33.7,27.2-61,60.9-61.1s61,27.2,61.1,60.9c0.1,33.7-27.2,61-60.9,61.1c0,0-0.1,0-0.1,0   c-33.5,0.2-60.8-26.9-61-60.4C338,91.1,338,90.9,338,90.7z M434.4,90.7c0.1-19.5-15.7-35.4-35.2-35.5s-35.4,15.7-35.5,35.2   s15.7,35.4,35.2,35.5c0,0,0,0,0.1,0c19.5,0.1,35.3-15.6,35.4-35.1C434.3,90.8,434.3,90.7,434.4,90.7L434.4,90.7z"/>
</g>
</svg>