<svg id="Layer_1" data-name="Layer 1" xmlns="http://www.w3.org/2000/svg" viewBox="0 0 481.96 482.18"><defs><style>.cls-1{fill:#fff;}</style></defs><title>edit_white</title><path class="cls-1" d="M491,109.11c-.06,14.61-5.26,26-15,35.76q-76.41,76.2-152.65,152.58-73.05,73-146.06,146.14a36.74,36.74,0,0,1-17,10c-44.53,12.12-89,24.55-133.45,36.91-11.1,3.08-20.29-6-17.25-17.6,6-23,12.39-45.85,18.66-68.75,6-22,11.86-44,18.28-65.87a32,32,0,0,1,7.57-13.12Q204.28,174.54,354.77,24.28c20.47-20.46,49.86-20.48,70.3-.13q25.7,25.58,51.3,51.26C485.94,84.95,490.76,96.46,491,109.11ZM112.24,366.27l256.37-256.4-29-28.64L83.47,337.34Zm278.44-234.7L134.35,387.89l28.32,28.43,256.4-256.4Zm50.82,8.22,11.44-12c1.46-1.52,3-2.94,4.38-4.56,6.61-8,6.66-19.82-.69-27.36q-26.32-27-53.28-53.28a19.32,19.32,0,0,0-26.66-.12c-5.79,5.28-11.25,10.93-16.49,16.05ZM68.5,366c-4.89,18-9.88,36.06-14.61,54.21a6.87,6.87,0,0,0,1.44,5.49c6,6.43,12.31,12.65,18.7,18.73,1.17,1.12,3.49,2.11,4.9,1.74,18.46-4.82,36.85-9.9,54.93-14.82Z" transform="translate(-9.02 -8.91)"/></svg>