<?xml version="1.0" encoding="utf-8"?>
<!-- Generator: Adobe Illustrator 16.0.0, SVG Export Plug-In . SVG Version: 6.00 Build 0)  -->
<!DOCTYPE svg PUBLIC "-//W3C//DTD SVG 1.1//EN" "http://www.w3.org/Graphics/SVG/1.1/DTD/svg11.dtd">
<svg version="1.1" id="Layer_1" xmlns="http://www.w3.org/2000/svg" xmlns:xlink="http://www.w3.org/1999/xlink" x="0px" y="0px"
	 width="1280px" height="800px" viewBox="0 0 1280 800" enable-background="new 0 0 1280 800" xml:space="preserve">
<defs  xmlns="http://www.w3.org/1999/xhtml">
	<style  type="text/css">
		<![CDATA[
.theiaStickySidebar::after { content: ""; display: table; clear: both; }
.gsc-control-cse { font-family: Arial, sans-serif; border-color: rgb(238, 238, 238); background-color: rgb(238, 238, 238); }
.gsc-control-cse .gsc-table-result { font-family: Arial, sans-serif; }
input.gsc-input { border-color: rgb(217, 217, 217); }
input.gsc-search-button { border-color: rgb(102, 102, 102); background-color: rgb(206, 206, 206); }
.gsc-tabHeader.gsc-tabhInactive { border-color: rgb(233, 233, 233); background-color: rgb(233, 233, 233); }
.gsc-tabHeader.gsc-tabhActive { border-top-color: rgb(255, 153, 0); border-left-color: rgb(233, 233, 233); border-right-color: rgb(233, 233, 233); background-color: rgb(255, 255, 255); }
.gsc-tabsArea { border-color: rgb(233, 233, 233); }
.gsc-webResult.gsc-result, .gsc-results .gsc-imageResult { border-color: rgb(255, 255, 255); background-color: rgb(255, 255, 255); }
.gsc-webResult.gsc-result:hover, .gsc-imageResult:hover { border-color: rgb(255, 255, 255); background-color: rgb(255, 255, 255); }
.gsc-webResult.gsc-result.gsc-promotion:hover { border-color: rgb(255, 255, 255); background-color: rgb(255, 255, 255); }
.gs-webResult.gs-result a.gs-title:link, .gs-webResult.gs-result a.gs-title:link b, .gs-imageResult a.gs-title:link, .gs-imageResult a.gs-title:link b { color: rgb(0, 0, 204); }
.gs-webResult.gs-result a.gs-title:visited, .gs-webResult.gs-result a.gs-title:visited b, .gs-imageResult a.gs-title:visited, .gs-imageResult a.gs-title:visited b { color: rgb(0, 0, 204); }
.gs-webResult.gs-result a.gs-title:hover, .gs-webResult.gs-result a.gs-title:hover b, .gs-imageResult a.gs-title:hover, .gs-imageResult a.gs-title:hover b { color: rgb(0, 0, 204); }
.gs-webResult.gs-result a.gs-title:active, .gs-webResult.gs-result a.gs-title:active b, .gs-imageResult a.gs-title:active, .gs-imageResult a.gs-title:active b { color: rgb(0, 0, 204); }
.gsc-cursor-page { color: rgb(0, 0, 204); }
a.gsc-trailing-more-results:link { color: rgb(0, 0, 204); }
.gs-webResult .gs-snippet, .gs-imageResult .gs-snippet, .gs-fileFormatType { color: rgb(0, 0, 0); }
.gs-webResult div.gs-visibleUrl, .gs-imageResult div.gs-visibleUrl { color: rgb(0, 128, 0); }
.gs-webResult div.gs-visibleUrl-short { color: rgb(0, 128, 0); }
.gs-webResult div.gs-visibleUrl-short { display: none; }
.gs-webResult div.gs-visibleUrl-long { display: block; }
.gs-promotion div.gs-visibleUrl-short { display: none; }
.gs-promotion div.gs-visibleUrl-long { display: block; }
.gsc-cursor-box { border-color: rgb(255, 255, 255); }
.gsc-results .gsc-cursor-box .gsc-cursor-page { border-color: rgb(233, 233, 233); background-color: rgb(255, 255, 255); color: rgb(0, 0, 204); }
.gsc-results .gsc-cursor-box .gsc-cursor-current-page { border-color: rgb(255, 153, 0); background-color: rgb(255, 255, 255); color: rgb(0, 0, 204); }
.gsc-webResult.gsc-result.gsc-promotion { border-color: rgb(51, 102, 153); background-color: rgb(255, 255, 255); }
.gsc-completion-title { color: rgb(0, 0, 204); }
.gsc-completion-snippet { color: rgb(0, 0, 0); }
.gs-promotion a.gs-title:link, .gs-promotion a.gs-title:link *, .gs-promotion .gs-snippet a:link { color: rgb(0, 0, 204); }
.gs-promotion a.gs-title:visited, .gs-promotion a.gs-title:visited *, .gs-promotion .gs-snippet a:visited { color: rgb(0, 0, 204); }
.gs-promotion a.gs-title:hover, .gs-promotion a.gs-title:hover *, .gs-promotion .gs-snippet a:hover { color: rgb(0, 0, 204); }
.gs-promotion a.gs-title:active, .gs-promotion a.gs-title:active *, .gs-promotion .gs-snippet a:active { color: rgb(0, 0, 204); }
.gs-promotion .gs-snippet, .gs-promotion .gs-title .gs-promotion-title-right, .gs-promotion .gs-title .gs-promotion-title-right * { color: rgb(0, 0, 0); }
.gs-promotion .gs-visibleUrl, .gs-promotion .gs-visibleUrl-short { color: rgb(0, 128, 0); }
.gscb_a { display: inline-block; font-style: normal; font-variant: normal; font-weight: normal; font-stretch: normal; font-size: 27px; line-height: 13px; font-family: arial, sans-serif; }
.gsst_a .gscb_a { color: rgb(161, 185, 237); cursor: pointer; }
.gsst_a:hover .gscb_a, .gsst_a:focus .gscb_a { color: rgb(51, 102, 204); }
.gsst_a { display: inline-block; }
.gsst_a { cursor: pointer; padding: 0px 4px; }
.gsst_a:hover { text-decoration: none !important; }
.gsst_b { font-size: 16px; padding: 0px 2px; position: relative; user-select: none; white-space: nowrap; }
.gsst_e { opacity: 0.55; }
.gsst_a:hover .gsst_e, .gsst_a:focus .gsst_e { opacity: 0.72; }
.gsst_a:active .gsst_e { opacity: 1; }
.gsst_f { background: white; text-align: left; }
.gsst_g { background-color: white; border-width: 1px; border-style: solid; border-color: rgb(217, 217, 217) rgb(204, 204, 204) rgb(204, 204, 204); border-image: initial; box-shadow: rgba(0, 0, 0, 0.2) 0px 2px 4px; margin: -1px -3px; padding: 0px 6px; }
.gsst_h { background-color: white; height: 1px; margin-bottom: -1px; position: relative; top: -1px; }
.gsib_a { width: 100%; padding: 4px 6px 0px; }
.gsib_a, .gsib_b { vertical-align: top; }
.gssb_c { border: 0px; position: absolute; z-index: 989; }
.gssb_e { border-width: 1px; border-style: solid; border-color: rgb(217, 217, 217) rgb(204, 204, 204) rgb(204, 204, 204); border-image: initial; box-shadow: rgba(0, 0, 0, 0.2) 0px 2px 4px; cursor: default; }
.gssb_f { visibility: hidden; white-space: nowrap; }
.gssb_k { border: 0px; display: block; position: absolute; top: 0px; z-index: 988; }
.gsdd_a { border: none !important; }
.gsq_a { padding: 0px; }
.gsq_a { padding: 0px; }
.gscsep_a { display: none; }
.gssb_a { padding: 0px 7px; }
.gssb_a, .gssb_a td { white-space: nowrap; overflow: hidden; line-height: 22px; }
#gssb_b { font-size: 11px; color: rgb(51, 102, 204); text-decoration: none; }
#gssb_b:hover { font-size: 11px; color: rgb(51, 102, 204); text-decoration: underline; }
.gssb_g { text-align: center; padding: 8px 0px 7px; position: relative; }
.gssb_h { font-size: 15px; height: 28px; margin: 0.2em; -webkit-appearance: button; }
.gssb_i { background: rgb(238, 238, 238); }
.gss_ifl { visibility: hidden; padding-left: 5px; }
.gssb_i .gss_ifl { visibility: visible; }
a.gssb_j { font-size: 13px; color: rgb(51, 102, 204); text-decoration: none; line-height: 100%; }
a.gssb_j:hover { text-decoration: underline; }
.gssb_l { height: 1px; background-color: rgb(229, 229, 229); }
.gssb_m { color: rgb(0, 0, 0); background: rgb(255, 255, 255); }
.gsfe_a { border-width: 1px; border-style: solid; border-color: rgb(160, 160, 160) rgb(185, 185, 185) rgb(185, 185, 185); border-image: initial; box-shadow: rgba(0, 0, 0, 0.0980392) 0px 1px 2px inset; }
.gsfe_b { border: 1px solid rgb(77, 144, 254); outline: none; box-shadow: rgba(0, 0, 0, 0.298039) 0px 1px 2px inset; }
.gssb_a { padding: 0px 7px; }
.gssb_e { border: 0px; }
.gssb_l { margin: 5px 0px; }
#gsc-i-id1::-webkit-input-placeholder { font-size: 14px; }
#gsc-i-id1:focus::-webkit-input-placeholder { color: transparent; }
.gssb_c .gsc-completion-container { position: static; }
.gssb_c { z-index: 5000; }
.gsc-completion-container table { background: transparent; font-size: inherit; font-family: inherit; }
.gssb_a table, .gssb_a table tr, .gssb_a table tr td { padding: 0px; margin: 0px; border: 0px; }
#menufication-top { animation-duration: 0.001s; animation-name: insQ_100; }
.fancybox-margin { margin-right: 0px; }
.st0 { fill: rgb(255, 255, 255); }
.st0 { fill: rgb(255, 255, 255); }
.cls-1 { fill: rgb(255, 255, 255); }
.cls-1 { fill: rgb(255, 255, 255); stroke: rgb(255, 255, 255); stroke-miterlimit: 10; stroke-width: 2.5px; }
.recommended-groups-wrapper { display: none; }
.subscribed-groups-wrapper { display: none; }
.group-combine-wrapper { display: none; }
.expert-chat-wrapper { display: none; }
#subscribePopup::before { content: none; }
.password-field { display: none; }
			]]>
	</style>
</defs>
<title>home</title>
<g>
	<path fill="#8675A1" d="M329.92,611.68c0-39.52-0.16-79.04,0-118.56c0-16.32,9.6-26.4,23.36-25.601
		c10.88,0.641,19.52,9.44,20.16,21.28c0.64,9.44,0.32,18.88,0.32,28.32c0,62.56,0,125.12,0,187.84c0,31.84,13.76,46.56,43.36,46.72
		c29.6,0.16,58.72,0,88.16,0c27.52,0,41.92-15.52,41.92-45.12c0-38.399,0-76.96,0-115.359c0-31.84,16.96-50.4,45.92-50.561
		c32.96-0.16,65.92-0.16,98.72,0c28.48,0.16,45.44,18.88,45.601,49.92c0,38.88,0,77.601,0,116.48c0,28.96,14.399,44.64,41.279,44.64
		c29.12,0.16,58.08,0.16,87.2,0c28.479,0,42.4-14.72,42.4-45.439c0-69.92,0-139.84,0-209.761c0-17.6,7.52-28,20.64-28.8
		c13.76-0.8,23.52,9.28,23.52,25.28c0.16,33.92,0,67.84,0,101.76c0,43.04,0,86.08,0,128.96c-0.159,44.96-28.479,75.681-69.92,75.84
		c-39.68,0.16-79.359,0.16-119.199,0c-41.28-0.159-69.761-31.04-70.08-76c-0.16-37.76,0-75.52,0-113.279
		c0-16.801-4.801-22.08-20.16-22.24c-20.641-0.16-41.28-0.16-61.92,0c-14.88,0-19.84,5.439-19.84,21.439
		c0,37.12-0.641,74.08,0.16,111.2c1.119,49.601-34.561,80.96-73.44,79.2c-39.36-1.6-78.72-0.32-118.08-0.32
		c-41.6-0.159-69.92-30.56-70.08-75.68C329.76,686.56,329.92,649.12,329.92,611.68z"/>
	<path fill="#8675A1" d="M1040,409.76c-2.08,10.721-5.28,17.92-13.12,22.08c-8,4.32-16.32,4.32-23.84-1.439
		c-2.88-2.4-5.439-4.96-7.84-7.841C884.96,303.2,774.72,183.84,664.479,64.32c-19.039-20.64-32.959-20.64-52,0L282.56,419.2
		c-1.76,1.92-3.68,4-5.6,5.92c-9.44,9.28-22.4,9.76-30.56,1.12c-8.8-9.44-8.8-24.32,0.16-34.88c1.6-1.761,3.2-3.521,4.8-5.12
		L582.08,29.12C618.24-9.76,659.84-9.76,696,29.28c110.4,120,220.64,239.84,330.88,359.84
		C1032.16,394.88,1035.68,402.88,1040,409.76z"/>
</g>
</svg>
