<?xml version="1.0" encoding="utf-8"?>
<!-- Generator: Adobe Illustrator 16.0.0, SVG Export Plug-In . SVG Version: 6.00 Build 0)  -->
<!DOCTYPE svg PUBLIC "-//W3C//DTD SVG 1.1//EN" "http://www.w3.org/Graphics/SVG/1.1/DTD/svg11.dtd">
<svg version="1.1" id="Layer_1" xmlns="http://www.w3.org/2000/svg" xmlns:xlink="http://www.w3.org/1999/xlink" x="0px" y="0px"
	 width="36px" height="36px" viewBox="0 0 36 36" enable-background="new 0 0 36 36" xml:space="preserve">
<path fill="#9177AD" d="M28.356,24.42c-1.624,0-3.084,0.699-4.095,1.816l-11.339-6.547c0.167-0.533,0.264-1.102,0.264-1.689
	c0-0.59-0.097-1.157-0.264-1.691l11.339-6.545c1.011,1.116,2.471,1.817,4.095,1.817c3.06,0,5.541-2.479,5.541-5.538
	c0-3.062-2.481-5.543-5.541-5.543s-5.541,2.481-5.541,5.543c0,0.586,0.096,1.154,0.264,1.688l-11.34,6.549
	c-1.012-1.117-2.469-1.82-4.094-1.82c-3.062,0-5.543,2.481-5.543,5.541s2.481,5.542,5.543,5.542c1.625,0,3.082-0.706,4.094-1.821
	l11.342,6.549c-0.17,0.53-0.266,1.101-0.266,1.688c0,3.061,2.481,5.543,5.541,5.543s5.541-2.482,5.541-5.543
	C33.897,26.897,31.416,24.42,28.356,24.42z"/>
</svg>
