<?xml version="1.0" encoding="utf-8"?>
<!-- Generator: Adobe Illustrator 16.0.0, SVG Export Plug-In . SVG Version: 6.00 Build 0)  -->
<!DOCTYPE svg PUBLIC "-//W3C//DTD SVG 1.1//EN" "http://www.w3.org/Graphics/SVG/1.1/DTD/svg11.dtd">
<svg version="1.1" id="Layer_1" xmlns="http://www.w3.org/2000/svg" xmlns:xlink="http://www.w3.org/1999/xlink" x="0px" y="0px"
	 width="1280px" height="800px" viewBox="0 0 1280 800" enable-background="new 0 0 1280 800" xml:space="preserve">
<defs  xmlns="http://www.w3.org/1999/xhtml">
	<style  type="text/css">
		<![CDATA[
.theiaStickySidebar::after { content: ""; display: table; clear: both; }
.gsc-control-cse { font-family: Arial, sans-serif; border-color: rgb(238, 238, 238); background-color: rgb(238, 238, 238); }
.gsc-control-cse .gsc-table-result { font-family: Arial, sans-serif; }
input.gsc-input { border-color: rgb(217, 217, 217); }
input.gsc-search-button { border-color: rgb(102, 102, 102); background-color: rgb(206, 206, 206); }
.gsc-tabHeader.gsc-tabhInactive { border-color: rgb(233, 233, 233); background-color: rgb(233, 233, 233); }
.gsc-tabHeader.gsc-tabhActive { border-top-color: rgb(255, 153, 0); border-left-color: rgb(233, 233, 233); border-right-color: rgb(233, 233, 233); background-color: rgb(255, 255, 255); }
.gsc-tabsArea { border-color: rgb(233, 233, 233); }
.gsc-webResult.gsc-result, .gsc-results .gsc-imageResult { border-color: rgb(255, 255, 255); background-color: rgb(255, 255, 255); }
.gsc-webResult.gsc-result:hover, .gsc-imageResult:hover { border-color: rgb(255, 255, 255); background-color: rgb(255, 255, 255); }
.gsc-webResult.gsc-result.gsc-promotion:hover { border-color: rgb(255, 255, 255); background-color: rgb(255, 255, 255); }
.gs-webResult.gs-result a.gs-title:link, .gs-webResult.gs-result a.gs-title:link b, .gs-imageResult a.gs-title:link, .gs-imageResult a.gs-title:link b { color: rgb(0, 0, 204); }
.gs-webResult.gs-result a.gs-title:visited, .gs-webResult.gs-result a.gs-title:visited b, .gs-imageResult a.gs-title:visited, .gs-imageResult a.gs-title:visited b { color: rgb(0, 0, 204); }
.gs-webResult.gs-result a.gs-title:hover, .gs-webResult.gs-result a.gs-title:hover b, .gs-imageResult a.gs-title:hover, .gs-imageResult a.gs-title:hover b { color: rgb(0, 0, 204); }
.gs-webResult.gs-result a.gs-title:active, .gs-webResult.gs-result a.gs-title:active b, .gs-imageResult a.gs-title:active, .gs-imageResult a.gs-title:active b { color: rgb(0, 0, 204); }
.gsc-cursor-page { color: rgb(0, 0, 204); }
a.gsc-trailing-more-results:link { color: rgb(0, 0, 204); }
.gs-webResult .gs-snippet, .gs-imageResult .gs-snippet, .gs-fileFormatType { color: rgb(0, 0, 0); }
.gs-webResult div.gs-visibleUrl, .gs-imageResult div.gs-visibleUrl { color: rgb(0, 128, 0); }
.gs-webResult div.gs-visibleUrl-short { color: rgb(0, 128, 0); }
.gs-webResult div.gs-visibleUrl-short { display: none; }
.gs-webResult div.gs-visibleUrl-long { display: block; }
.gs-promotion div.gs-visibleUrl-short { display: none; }
.gs-promotion div.gs-visibleUrl-long { display: block; }
.gsc-cursor-box { border-color: rgb(255, 255, 255); }
.gsc-results .gsc-cursor-box .gsc-cursor-page { border-color: rgb(233, 233, 233); background-color: rgb(255, 255, 255); color: rgb(0, 0, 204); }
.gsc-results .gsc-cursor-box .gsc-cursor-current-page { border-color: rgb(255, 153, 0); background-color: rgb(255, 255, 255); color: rgb(0, 0, 204); }
.gsc-webResult.gsc-result.gsc-promotion { border-color: rgb(51, 102, 153); background-color: rgb(255, 255, 255); }
.gsc-completion-title { color: rgb(0, 0, 204); }
.gsc-completion-snippet { color: rgb(0, 0, 0); }
.gs-promotion a.gs-title:link, .gs-promotion a.gs-title:link *, .gs-promotion .gs-snippet a:link { color: rgb(0, 0, 204); }
.gs-promotion a.gs-title:visited, .gs-promotion a.gs-title:visited *, .gs-promotion .gs-snippet a:visited { color: rgb(0, 0, 204); }
.gs-promotion a.gs-title:hover, .gs-promotion a.gs-title:hover *, .gs-promotion .gs-snippet a:hover { color: rgb(0, 0, 204); }
.gs-promotion a.gs-title:active, .gs-promotion a.gs-title:active *, .gs-promotion .gs-snippet a:active { color: rgb(0, 0, 204); }
.gs-promotion .gs-snippet, .gs-promotion .gs-title .gs-promotion-title-right, .gs-promotion .gs-title .gs-promotion-title-right * { color: rgb(0, 0, 0); }
.gs-promotion .gs-visibleUrl, .gs-promotion .gs-visibleUrl-short { color: rgb(0, 128, 0); }
.gscb_a { display: inline-block; font-style: normal; font-variant: normal; font-weight: normal; font-stretch: normal; font-size: 27px; line-height: 13px; font-family: arial, sans-serif; }
.gsst_a .gscb_a { color: rgb(161, 185, 237); cursor: pointer; }
.gsst_a:hover .gscb_a, .gsst_a:focus .gscb_a { color: rgb(51, 102, 204); }
.gsst_a { display: inline-block; }
.gsst_a { cursor: pointer; padding: 0px 4px; }
.gsst_a:hover { text-decoration: none !important; }
.gsst_b { font-size: 16px; padding: 0px 2px; position: relative; user-select: none; white-space: nowrap; }
.gsst_e { opacity: 0.55; }
.gsst_a:hover .gsst_e, .gsst_a:focus .gsst_e { opacity: 0.72; }
.gsst_a:active .gsst_e { opacity: 1; }
.gsst_f { background: white; text-align: left; }
.gsst_g { background-color: white; border-width: 1px; border-style: solid; border-color: rgb(217, 217, 217) rgb(204, 204, 204) rgb(204, 204, 204); border-image: initial; box-shadow: rgba(0, 0, 0, 0.2) 0px 2px 4px; margin: -1px -3px; padding: 0px 6px; }
.gsst_h { background-color: white; height: 1px; margin-bottom: -1px; position: relative; top: -1px; }
.gsib_a { width: 100%; padding: 4px 6px 0px; }
.gsib_a, .gsib_b { vertical-align: top; }
.gssb_c { border: 0px; position: absolute; z-index: 989; }
.gssb_e { border-width: 1px; border-style: solid; border-color: rgb(217, 217, 217) rgb(204, 204, 204) rgb(204, 204, 204); border-image: initial; box-shadow: rgba(0, 0, 0, 0.2) 0px 2px 4px; cursor: default; }
.gssb_f { visibility: hidden; white-space: nowrap; }
.gssb_k { border: 0px; display: block; position: absolute; top: 0px; z-index: 988; }
.gsdd_a { border: none !important; }
.gsq_a { padding: 0px; }
.gsq_a { padding: 0px; }
.gscsep_a { display: none; }
.gssb_a { padding: 0px 7px; }
.gssb_a, .gssb_a td { white-space: nowrap; overflow: hidden; line-height: 22px; }
#gssb_b { font-size: 11px; color: rgb(51, 102, 204); text-decoration: none; }
#gssb_b:hover { font-size: 11px; color: rgb(51, 102, 204); text-decoration: underline; }
.gssb_g { text-align: center; padding: 8px 0px 7px; position: relative; }
.gssb_h { font-size: 15px; height: 28px; margin: 0.2em; -webkit-appearance: button; }
.gssb_i { background: rgb(238, 238, 238); }
.gss_ifl { visibility: hidden; padding-left: 5px; }
.gssb_i .gss_ifl { visibility: visible; }
a.gssb_j { font-size: 13px; color: rgb(51, 102, 204); text-decoration: none; line-height: 100%; }
a.gssb_j:hover { text-decoration: underline; }
.gssb_l { height: 1px; background-color: rgb(229, 229, 229); }
.gssb_m { color: rgb(0, 0, 0); background: rgb(255, 255, 255); }
.gsfe_a { border-width: 1px; border-style: solid; border-color: rgb(160, 160, 160) rgb(185, 185, 185) rgb(185, 185, 185); border-image: initial; box-shadow: rgba(0, 0, 0, 0.0980392) 0px 1px 2px inset; }
.gsfe_b { border: 1px solid rgb(77, 144, 254); outline: none; box-shadow: rgba(0, 0, 0, 0.298039) 0px 1px 2px inset; }
.gssb_a { padding: 0px 7px; }
.gssb_e { border: 0px; }
.gssb_l { margin: 5px 0px; }
#gsc-i-id1::-webkit-input-placeholder { font-size: 14px; }
#gsc-i-id1:focus::-webkit-input-placeholder { color: transparent; }
.gssb_c .gsc-completion-container { position: static; }
.gssb_c { z-index: 5000; }
.gsc-completion-container table { background: transparent; font-size: inherit; font-family: inherit; }
.gssb_a table, .gssb_a table tr, .gssb_a table tr td { padding: 0px; margin: 0px; border: 0px; }
#menufication-top { animation-duration: 0.001s; animation-name: insQ_100; }
.fancybox-margin { margin-right: 0px; }
.st0 { fill: rgb(255, 255, 255); }
.st0 { fill: rgb(255, 255, 255); }
.cls-1 { fill: rgb(255, 255, 255); }
.cls-1 { fill: rgb(255, 255, 255); stroke: rgb(255, 255, 255); stroke-miterlimit: 10; stroke-width: 2.5px; }
.recommended-groups-wrapper { display: none; }
.subscribed-groups-wrapper { display: none; }
.group-combine-wrapper { display: none; }
.expert-chat-wrapper { display: none; }
#subscribePopup::before { content: none; }
.password-field { display: none; }
			]]>
	</style>
</defs>
<title>community</title>
<g>
	<path fill="#8675A1" d="M513.6,639.68c0-27.84-0.159-55.68,0.16-83.68c0-5.6-1.6-8.8-6.399-12.16
		c-30.4-20.64-46.881-49.12-47.2-86.24c-0.32-42.72-0.32-85.439,0-128.159c0.319-51.2,34.24-92,84.319-101.601
		c5.601-1.12,11.36-1.6,16.961-1.6c52.479-0.16,104.96-0.48,157.439,0c49.12,0.48,89.44,33.92,99.68,81.92
		c1.44,7.2,2.24,14.399,2.24,21.76c0.16,42.561,0.32,84.96,0,127.521c-0.32,37.76-16.8,67.04-48.479,87.68
		c-3.84,2.399-4.96,4.96-4.96,9.28c0.16,53.76,0.16,107.359,0,161.119c0,49.12-34.721,84.32-84,84.48
		c-32.801,0-65.761,0.8-98.561-0.96c-36.8-2.08-69.279-35.84-70.72-72.64c-1.28-28.801-0.16-57.601-0.16-86.4L513.6,639.68z
		 M553.76,626.88c0,29.44,0,58.88,0,88.48c0,25.439,17.12,42.56,42.561,42.56c29.439,0,58.88,0,88.319,0
		c3.04,0,5.92-0.16,8.801-0.64c20.8-3.84,33.76-20.16,33.76-42.721c0-59.199,0-118.399,0-177.439c0-12.48,3.68-17.92,14.88-22.72
		c24.8-10.561,37.92-29.601,38.4-56.48c0.64-43.2,0.479-86.4,0-129.6c-0.32-34.561-25.921-60.48-60.16-60.96
		c-52.641-0.64-105.44-0.64-158.08,0c-34.88,0.48-60.16,25.28-60.641,59.36c-0.64,44.48-0.64,89.12,0,133.601
		c0.48,25.6,13.761,44,37.12,54.399c10.24,4.641,15.2,11.521,15.04,22.721C553.76,567.36,553.76,597.12,553.76,626.88L553.76,626.88
		z"/>
	<path fill="#8675A1" d="M290.88,645.6c0-26.56-0.16-52.96,0.16-79.52c0.32-3.68-1.6-7.04-4.8-8.8
		c-30.24-20.16-46.4-48.16-46.24-85.12c0.16-39.521,0-79.04,0-118.561c0.16-57.28,42.72-100.16,99.84-100.319
		c26.4,0,52.96-0.16,79.36,0c15.52,0.16,25.439,13.28,20.8,27.2c-2.88,8.64-10.24,13.76-20.64,13.76c-27.2,0-54.4-0.16-81.44,0.16
		c-28.32,0.32-50.88,19.36-56,46.88c-0.64,4.319-0.96,8.64-0.8,12.96c0,39.359,0,78.56,0,117.92c0,26.56,11.84,44.64,36.32,54.88
		c9.92,4.16,13.76,11.68,13.6,22.08c-0.16,56.16-0.16,112.479,0,168.64c0,20.8,11.36,35.36,30.4,39.04c3.2,0.48,6.4,0.8,9.6,0.641
		c27.68,0,55.2-0.16,82.88,0c15.2,0.159,25.28,12.159,22.24,26.239c-1.76,9.12-9.92,15.84-19.2,15.681
		c-32,0.159-64,1.12-95.84-0.801c-38.72-2.399-69.6-36.8-70.08-75.68C290.72,697.28,290.88,671.52,290.88,645.6z"/>
	<path fill="#8675A1" d="M948.16,636.64c0-28.159,0-56.159,0-84.319c0-10.88,4.64-17.92,14.72-22.24
		c22.88-9.76,35.2-27.36,35.36-52.16c0.479-40.64,0.479-81.28,0-122.08c-0.32-32.8-24.64-56-57.44-56.16
		c-26.399-0.16-52.96,0.16-79.359,0c-14.08-0.16-22.881-10.08-21.44-23.36c0.96-8.8,8-17.28,16.8-17.28
		c32.801-0.32,65.92-2.56,98.4,0.96c47.359,4.96,81.439,41.92,83.52,89.6c1.92,45.44,1.44,90.881-0.16,136.32
		c-1.119,31.36-17.6,55.68-43.84,72.8c-4.319,2.88-5.439,5.601-5.439,10.4c0.16,49.76,0.16,99.68,0.16,149.439
		c0,47.36-33.28,80.48-80.641,80.48h-81.6c-13.44,0-21.6-7.2-21.76-19.2c-0.32-12.479,8.319-20.96,21.76-20.96
		c26.72-0.16,53.439,0,80.16,0c26.399,0,40.96-14.72,40.96-41.12C948.16,690.56,948.16,663.52,948.16,636.64z"/>
	<path fill="#8675A1" d="M640.64,205.6c-56.8-0.16-102.72-46.24-102.56-103.04C538.24,45.76,584.32-0.16,641.12,0
		s102.72,46.24,102.56,103.04v0.16c0,56.48-45.92,102.4-102.399,102.4C641.12,205.6,640.8,205.6,640.64,205.6z M641.12,164.48
		c33.92-0.32,61.28-27.68,61.439-61.6c0-33.44-28-61.6-61.439-61.76c-33.76-0.16-61.92,28-61.76,62.08
		C579.68,137.12,607.2,164.48,641.12,164.48L641.12,164.48z"/>
	<path fill="#8675A1" d="M403.2,236.8c-54.24-0.32-98.24-44.16-98.4-98.4c0-54.24,44.8-99.04,98.88-98.88
		c54.08,0.16,98.24,44.64,98.24,98.72c0,54.4-44,98.56-98.56,98.72C403.36,236.8,403.2,236.8,403.2,236.8z M403.2,81.6
		c-31.84,0-57.6,25.76-57.6,57.6c0,31.84,25.76,57.6,57.6,57.6c31.84,0,57.6-25.76,57.6-57.6c0-0.16,0-0.32,0-0.32
		c0-31.68-25.6-57.28-57.12-57.28C403.52,81.6,403.36,81.6,403.2,81.6z"/>
	<path fill="#8675A1" d="M780.8,145.12c-0.16-53.92,43.521-97.6,97.44-97.76c53.92-0.16,97.6,43.52,97.76,97.44
		c0.16,53.92-43.521,97.6-97.44,97.76H878.4c-53.601,0.32-97.28-43.04-97.601-96.64C780.8,145.76,780.8,145.44,780.8,145.12z
		 M935.04,145.12c0.16-31.2-25.12-56.64-56.32-56.8c-31.199-0.16-56.64,25.12-56.8,56.32c-0.16,31.2,25.12,56.64,56.32,56.8
		c0,0,0,0,0.16,0c31.2,0.16,56.479-24.96,56.64-56.16C934.88,145.28,934.88,145.12,935.04,145.12L935.04,145.12z"/>
</g>
</svg>
