<?xml version="1.0" standalone="no"?><!DOCTYPE svg PUBLIC "-//W3C//DTD SVG 1.1//EN" "http://www.w3.org/Graphics/SVG/1.1/DTD/svg11.dtd"><svg xmlns:xlink="http://www.w3.org/1999/xlink" version="1.1" id="Layer_1" x="0px" y="0px" viewBox="0 0 500 500" style="enable-background:new 0 0 500 500;" xml:space="preserve" class="center-block svg replaced-svg" xmlns="http://www.w3.org/2000/svg"><defs xmlns="http://www.w3.org/1999/xhtml"><style type="text/css"><![CDATA[
.theiaStickySidebar::after { content: ""; display: table; clear: both; }
.gsc-control-cse { font-family: Arial, sans-serif; border-color: rgb(238, 238, 238); background-color: rgb(238, 238, 238); }
.gsc-control-cse .gsc-table-result { font-family: Arial, sans-serif; }
input.gsc-input { border-color: rgb(217, 217, 217); }
input.gsc-search-button { border-color: rgb(102, 102, 102); background-color: rgb(206, 206, 206); }
.gsc-tabHeader.gsc-tabhInactive { border-color: rgb(233, 233, 233); background-color: rgb(233, 233, 233); }
.gsc-tabHeader.gsc-tabhActive { border-top-color: rgb(255, 153, 0); border-left-color: rgb(233, 233, 233); border-right-color: rgb(233, 233, 233); background-color: rgb(255, 255, 255); }
.gsc-tabsArea { border-color: rgb(233, 233, 233); }
.gsc-webResult.gsc-result, .gsc-results .gsc-imageResult { border-color: rgb(255, 255, 255); background-color: rgb(255, 255, 255); }
.gsc-webResult.gsc-result:hover, .gsc-imageResult:hover { border-color: rgb(255, 255, 255); background-color: rgb(255, 255, 255); }
.gsc-webResult.gsc-result.gsc-promotion:hover { border-color: rgb(255, 255, 255); background-color: rgb(255, 255, 255); }
.gs-webResult.gs-result a.gs-title:link, .gs-webResult.gs-result a.gs-title:link b, .gs-imageResult a.gs-title:link, .gs-imageResult a.gs-title:link b { color: rgb(0, 0, 204); }
.gs-webResult.gs-result a.gs-title:visited, .gs-webResult.gs-result a.gs-title:visited b, .gs-imageResult a.gs-title:visited, .gs-imageResult a.gs-title:visited b { color: rgb(0, 0, 204); }
.gs-webResult.gs-result a.gs-title:hover, .gs-webResult.gs-result a.gs-title:hover b, .gs-imageResult a.gs-title:hover, .gs-imageResult a.gs-title:hover b { color: rgb(0, 0, 204); }
.gs-webResult.gs-result a.gs-title:active, .gs-webResult.gs-result a.gs-title:active b, .gs-imageResult a.gs-title:active, .gs-imageResult a.gs-title:active b { color: rgb(0, 0, 204); }
.gsc-cursor-page { color: rgb(0, 0, 204); }
a.gsc-trailing-more-results:link { color: rgb(0, 0, 204); }
.gs-webResult .gs-snippet, .gs-imageResult .gs-snippet, .gs-fileFormatType { color: rgb(0, 0, 0); }
.gs-webResult div.gs-visibleUrl, .gs-imageResult div.gs-visibleUrl { color: rgb(0, 128, 0); }
.gs-webResult div.gs-visibleUrl-short { color: rgb(0, 128, 0); }
.gs-webResult div.gs-visibleUrl-short { display: none; }
.gs-webResult div.gs-visibleUrl-long { display: block; }
.gs-promotion div.gs-visibleUrl-short { display: none; }
.gs-promotion div.gs-visibleUrl-long { display: block; }
.gsc-cursor-box { border-color: rgb(255, 255, 255); }
.gsc-results .gsc-cursor-box .gsc-cursor-page { border-color: rgb(233, 233, 233); background-color: rgb(255, 255, 255); color: rgb(0, 0, 204); }
.gsc-results .gsc-cursor-box .gsc-cursor-current-page { border-color: rgb(255, 153, 0); background-color: rgb(255, 255, 255); color: rgb(0, 0, 204); }
.gsc-webResult.gsc-result.gsc-promotion { border-color: rgb(51, 102, 153); background-color: rgb(255, 255, 255); }
.gsc-completion-title { color: rgb(0, 0, 204); }
.gsc-completion-snippet { color: rgb(0, 0, 0); }
.gs-promotion a.gs-title:link, .gs-promotion a.gs-title:link *, .gs-promotion .gs-snippet a:link { color: rgb(0, 0, 204); }
.gs-promotion a.gs-title:visited, .gs-promotion a.gs-title:visited *, .gs-promotion .gs-snippet a:visited { color: rgb(0, 0, 204); }
.gs-promotion a.gs-title:hover, .gs-promotion a.gs-title:hover *, .gs-promotion .gs-snippet a:hover { color: rgb(0, 0, 204); }
.gs-promotion a.gs-title:active, .gs-promotion a.gs-title:active *, .gs-promotion .gs-snippet a:active { color: rgb(0, 0, 204); }
.gs-promotion .gs-snippet, .gs-promotion .gs-title .gs-promotion-title-right, .gs-promotion .gs-title .gs-promotion-title-right * { color: rgb(0, 0, 0); }
.gs-promotion .gs-visibleUrl, .gs-promotion .gs-visibleUrl-short { color: rgb(0, 128, 0); }
.gscb_a { display: inline-block; font-style: normal; font-variant: normal; font-weight: normal; font-stretch: normal; font-size: 27px; line-height: 13px; font-family: arial, sans-serif; }
.gsst_a .gscb_a { color: rgb(161, 185, 237); cursor: pointer; }
.gsst_a:hover .gscb_a, .gsst_a:focus .gscb_a { color: rgb(51, 102, 204); }
.gsst_a { display: inline-block; }
.gsst_a { cursor: pointer; padding: 0px 4px; }
.gsst_a:hover { text-decoration: none !important; }
.gsst_b { font-size: 16px; padding: 0px 2px; position: relative; user-select: none; white-space: nowrap; }
.gsst_e { opacity: 0.55; }
.gsst_a:hover .gsst_e, .gsst_a:focus .gsst_e { opacity: 0.72; }
.gsst_a:active .gsst_e { opacity: 1; }
.gsst_f { background: white; text-align: left; }
.gsst_g { background-color: white; border-width: 1px; border-style: solid; border-color: rgb(217, 217, 217) rgb(204, 204, 204) rgb(204, 204, 204); border-image: initial; box-shadow: rgba(0, 0, 0, 0.2) 0px 2px 4px; margin: -1px -3px; padding: 0px 6px; }
.gsst_h { background-color: white; height: 1px; margin-bottom: -1px; position: relative; top: -1px; }
.gsib_a { width: 100%; padding: 4px 6px 0px; }
.gsib_a, .gsib_b { vertical-align: top; }
.gssb_c { border: 0px; position: absolute; z-index: 989; }
.gssb_e { border-width: 1px; border-style: solid; border-color: rgb(217, 217, 217) rgb(204, 204, 204) rgb(204, 204, 204); border-image: initial; box-shadow: rgba(0, 0, 0, 0.2) 0px 2px 4px; cursor: default; }
.gssb_f { visibility: hidden; white-space: nowrap; }
.gssb_k { border: 0px; display: block; position: absolute; top: 0px; z-index: 988; }
.gsdd_a { border: none !important; }
.gsq_a { padding: 0px; }
.gsq_a { padding: 0px; }
.gscsep_a { display: none; }
.gssb_a { padding: 0px 7px; }
.gssb_a, .gssb_a td { white-space: nowrap; overflow: hidden; line-height: 22px; }
#gssb_b { font-size: 11px; color: rgb(51, 102, 204); text-decoration: none; }
#gssb_b:hover { font-size: 11px; color: rgb(51, 102, 204); text-decoration: underline; }
.gssb_g { text-align: center; padding: 8px 0px 7px; position: relative; }
.gssb_h { font-size: 15px; height: 28px; margin: 0.2em; -webkit-appearance: button; }
.gssb_i { background: rgb(238, 238, 238); }
.gss_ifl { visibility: hidden; padding-left: 5px; }
.gssb_i .gss_ifl { visibility: visible; }
a.gssb_j { font-size: 13px; color: rgb(51, 102, 204); text-decoration: none; line-height: 100%; }
a.gssb_j:hover { text-decoration: underline; }
.gssb_l { height: 1px; background-color: rgb(229, 229, 229); }
.gssb_m { color: rgb(0, 0, 0); background: rgb(255, 255, 255); }
.gsfe_a { border-width: 1px; border-style: solid; border-color: rgb(160, 160, 160) rgb(185, 185, 185) rgb(185, 185, 185); border-image: initial; box-shadow: rgba(0, 0, 0, 0.0980392) 0px 1px 2px inset; }
.gsfe_b { border: 1px solid rgb(77, 144, 254); outline: none; box-shadow: rgba(0, 0, 0, 0.298039) 0px 1px 2px inset; }
.gssb_a { padding: 0px 7px; }
.gssb_e { border: 0px; }
.gssb_l { margin: 5px 0px; }
#gsc-i-id1::-webkit-input-placeholder { font-size: 14px; }
#gsc-i-id1:focus::-webkit-input-placeholder { color: transparent; }
.gssb_c .gsc-completion-container { position: static; }
.gssb_c { z-index: 5000; }
.gsc-completion-container table { background: transparent; font-size: inherit; font-family: inherit; }
.gssb_a table, .gssb_a table tr, .gssb_a table tr td { padding: 0px; margin: 0px; border: 0px; }
#menufication-top { animation-duration: 0.001s; animation-name: insQ_100; }
.fancybox-margin { margin-right: 0px; }
.st0 { fill: rgb(255, 255, 255); }
.st0 { fill: rgb(255, 255, 255); }
.cls-1 { fill: rgb(255, 255, 255); }
.cls-1 { fill: rgb(255, 255, 255); stroke: rgb(255, 255, 255); stroke-miterlimit: 10; stroke-width: 2.5px; }
.recommended-groups-wrapper { display: none; }
.subscribed-groups-wrapper { display: none; }
.group-combine-wrapper { display: none; }
.expert-chat-wrapper { display: none; }
#subscribePopup::before { content: none; }
.password-field { display: none; }]]></style></defs>
<style type="text/css">
	.st0{fill:#FFFFFF;}
</style>
<title>home</title>
<g>
	<path class="st0" d="M56.2,382.3c0-24.7-0.1-49.4,0-74.1c0-10.2,6-16.5,14.6-16c6.8,0.4,12.2,5.9,12.6,13.3   c0.4,5.9,0.2,11.8,0.2,17.7c0,39.1,0,78.2,0,117.4c0,19.9,8.6,29.1,27.1,29.2s36.7,0,55.1,0c17.2,0,26.2-9.7,26.2-28.2   c0-24,0-48.1,0-72.1c0-19.9,10.6-31.5,28.7-31.6c20.6-0.1,41.2-0.1,61.7,0c17.8,0.1,28.4,11.8,28.5,31.2c0,24.3,0,48.5,0,72.8   c0,18.1,9,27.9,25.8,27.9c18.2,0.1,36.3,0.1,54.5,0c17.8,0,26.5-9.2,26.5-28.4c0-43.7,0-87.4,0-131.1c0-11,4.7-17.5,12.9-18   c8.6-0.5,14.7,5.8,14.7,15.8c0.1,21.2,0,42.4,0,63.6c0,26.9,0,53.8,0,80.6c-0.1,28.1-17.8,47.3-43.7,47.4   c-24.8,0.1-49.6,0.1-74.5,0c-25.8-0.1-43.6-19.4-43.8-47.5c-0.1-23.6,0-47.2,0-70.8c0-10.5-3-13.8-12.6-13.9   c-12.9-0.1-25.8-0.1-38.7,0c-9.3,0-12.4,3.4-12.4,13.4c0,23.2-0.4,46.3,0.1,69.5c0.7,31-21.6,50.6-45.9,49.5   c-24.6-1-49.2-0.2-73.8-0.2c-26-0.1-43.7-19.1-43.8-47.3C56.1,429.1,56.2,405.7,56.2,382.3z"/>
	<path class="st0" d="M500,256.1c-1.3,6.7-3.3,11.2-8.2,13.8c-5,2.7-10.2,2.7-14.9-0.9c-1.8-1.5-3.4-3.1-4.9-4.9   c-68.9-74.6-137.8-149.2-206.7-223.9c-11.9-12.9-20.6-12.9-32.5,0L26.6,262c-1.1,1.2-2.3,2.5-3.5,3.7c-5.9,5.8-14,6.1-19.1,0.7   c-5.5-5.9-5.5-15.2,0.1-21.8c1-1.1,2-2.2,3-3.2L213.8,18.2c22.6-24.3,48.6-24.3,71.2,0.1C354,93.3,422.9,168.2,491.8,243.2   C495.1,246.8,497.3,251.8,500,256.1z"/>
</g>
</svg>