<?xml version="1.0" encoding="utf-8"?>
<!-- Generator: Adobe Illustrator 16.0.0, SVG Export Plug-In . SVG Version: 6.00 Build 0)  -->
<!DOCTYPE svg PUBLIC "-//W3C//DTD SVG 1.1//EN" "http://www.w3.org/Graphics/SVG/1.1/DTD/svg11.dtd">
<svg version="1.1" id="Layer_1" xmlns="http://www.w3.org/2000/svg" xmlns:xlink="http://www.w3.org/1999/xlink" x="0px" y="0px"
	 width="1280px" height="800px" viewBox="0 0 1280 800" enable-background="new 0 0 1280 800" xml:space="preserve">
<defs  xmlns="http://www.w3.org/1999/xhtml">
	<style  type="text/css">
		<![CDATA[
.theiaStickySidebar::after { content: ""; display: table; clear: both; }
.gsc-control-cse { font-family: Arial, sans-serif; border-color: rgb(238, 238, 238); background-color: rgb(238, 238, 238); }
.gsc-control-cse .gsc-table-result { font-family: Arial, sans-serif; }
input.gsc-input { border-color: rgb(217, 217, 217); }
input.gsc-search-button { border-color: rgb(102, 102, 102); background-color: rgb(206, 206, 206); }
.gsc-tabHeader.gsc-tabhInactive { border-color: rgb(233, 233, 233); background-color: rgb(233, 233, 233); }
.gsc-tabHeader.gsc-tabhActive { border-top-color: rgb(255, 153, 0); border-left-color: rgb(233, 233, 233); border-right-color: rgb(233, 233, 233); background-color: rgb(255, 255, 255); }
.gsc-tabsArea { border-color: rgb(233, 233, 233); }
.gsc-webResult.gsc-result, .gsc-results .gsc-imageResult { border-color: rgb(255, 255, 255); background-color: rgb(255, 255, 255); }
.gsc-webResult.gsc-result:hover, .gsc-imageResult:hover { border-color: rgb(255, 255, 255); background-color: rgb(255, 255, 255); }
.gsc-webResult.gsc-result.gsc-promotion:hover { border-color: rgb(255, 255, 255); background-color: rgb(255, 255, 255); }
.gs-webResult.gs-result a.gs-title:link, .gs-webResult.gs-result a.gs-title:link b, .gs-imageResult a.gs-title:link, .gs-imageResult a.gs-title:link b { color: rgb(0, 0, 204); }
.gs-webResult.gs-result a.gs-title:visited, .gs-webResult.gs-result a.gs-title:visited b, .gs-imageResult a.gs-title:visited, .gs-imageResult a.gs-title:visited b { color: rgb(0, 0, 204); }
.gs-webResult.gs-result a.gs-title:hover, .gs-webResult.gs-result a.gs-title:hover b, .gs-imageResult a.gs-title:hover, .gs-imageResult a.gs-title:hover b { color: rgb(0, 0, 204); }
.gs-webResult.gs-result a.gs-title:active, .gs-webResult.gs-result a.gs-title:active b, .gs-imageResult a.gs-title:active, .gs-imageResult a.gs-title:active b { color: rgb(0, 0, 204); }
.gsc-cursor-page { color: rgb(0, 0, 204); }
a.gsc-trailing-more-results:link { color: rgb(0, 0, 204); }
.gs-webResult .gs-snippet, .gs-imageResult .gs-snippet, .gs-fileFormatType { color: rgb(0, 0, 0); }
.gs-webResult div.gs-visibleUrl, .gs-imageResult div.gs-visibleUrl { color: rgb(0, 128, 0); }
.gs-webResult div.gs-visibleUrl-short { color: rgb(0, 128, 0); }
.gs-webResult div.gs-visibleUrl-short { display: none; }
.gs-webResult div.gs-visibleUrl-long { display: block; }
.gs-promotion div.gs-visibleUrl-short { display: none; }
.gs-promotion div.gs-visibleUrl-long { display: block; }
.gsc-cursor-box { border-color: rgb(255, 255, 255); }
.gsc-results .gsc-cursor-box .gsc-cursor-page { border-color: rgb(233, 233, 233); background-color: rgb(255, 255, 255); color: rgb(0, 0, 204); }
.gsc-results .gsc-cursor-box .gsc-cursor-current-page { border-color: rgb(255, 153, 0); background-color: rgb(255, 255, 255); color: rgb(0, 0, 204); }
.gsc-webResult.gsc-result.gsc-promotion { border-color: rgb(51, 102, 153); background-color: rgb(255, 255, 255); }
.gsc-completion-title { color: rgb(0, 0, 204); }
.gsc-completion-snippet { color: rgb(0, 0, 0); }
.gs-promotion a.gs-title:link, .gs-promotion a.gs-title:link *, .gs-promotion .gs-snippet a:link { color: rgb(0, 0, 204); }
.gs-promotion a.gs-title:visited, .gs-promotion a.gs-title:visited *, .gs-promotion .gs-snippet a:visited { color: rgb(0, 0, 204); }
.gs-promotion a.gs-title:hover, .gs-promotion a.gs-title:hover *, .gs-promotion .gs-snippet a:hover { color: rgb(0, 0, 204); }
.gs-promotion a.gs-title:active, .gs-promotion a.gs-title:active *, .gs-promotion .gs-snippet a:active { color: rgb(0, 0, 204); }
.gs-promotion .gs-snippet, .gs-promotion .gs-title .gs-promotion-title-right, .gs-promotion .gs-title .gs-promotion-title-right * { color: rgb(0, 0, 0); }
.gs-promotion .gs-visibleUrl, .gs-promotion .gs-visibleUrl-short { color: rgb(0, 128, 0); }
.gscb_a { display: inline-block; font-style: normal; font-variant: normal; font-weight: normal; font-stretch: normal; font-size: 27px; line-height: 13px; font-family: arial, sans-serif; }
.gsst_a .gscb_a { color: rgb(161, 185, 237); cursor: pointer; }
.gsst_a:hover .gscb_a, .gsst_a:focus .gscb_a { color: rgb(51, 102, 204); }
.gsst_a { display: inline-block; }
.gsst_a { cursor: pointer; padding: 0px 4px; }
.gsst_a:hover { text-decoration: none !important; }
.gsst_b { font-size: 16px; padding: 0px 2px; position: relative; user-select: none; white-space: nowrap; }
.gsst_e { opacity: 0.55; }
.gsst_a:hover .gsst_e, .gsst_a:focus .gsst_e { opacity: 0.72; }
.gsst_a:active .gsst_e { opacity: 1; }
.gsst_f { background: white; text-align: left; }
.gsst_g { background-color: white; border-width: 1px; border-style: solid; border-color: rgb(217, 217, 217) rgb(204, 204, 204) rgb(204, 204, 204); border-image: initial; box-shadow: rgba(0, 0, 0, 0.2) 0px 2px 4px; margin: -1px -3px; padding: 0px 6px; }
.gsst_h { background-color: white; height: 1px; margin-bottom: -1px; position: relative; top: -1px; }
.gsib_a { width: 100%; padding: 4px 6px 0px; }
.gsib_a, .gsib_b { vertical-align: top; }
.gssb_c { border: 0px; position: absolute; z-index: 989; }
.gssb_e { border-width: 1px; border-style: solid; border-color: rgb(217, 217, 217) rgb(204, 204, 204) rgb(204, 204, 204); border-image: initial; box-shadow: rgba(0, 0, 0, 0.2) 0px 2px 4px; cursor: default; }
.gssb_f { visibility: hidden; white-space: nowrap; }
.gssb_k { border: 0px; display: block; position: absolute; top: 0px; z-index: 988; }
.gsdd_a { border: none !important; }
.gsq_a { padding: 0px; }
.gsq_a { padding: 0px; }
.gscsep_a { display: none; }
.gssb_a { padding: 0px 7px; }
.gssb_a, .gssb_a td { white-space: nowrap; overflow: hidden; line-height: 22px; }
#gssb_b { font-size: 11px; color: rgb(51, 102, 204); text-decoration: none; }
#gssb_b:hover { font-size: 11px; color: rgb(51, 102, 204); text-decoration: underline; }
.gssb_g { text-align: center; padding: 8px 0px 7px; position: relative; }
.gssb_h { font-size: 15px; height: 28px; margin: 0.2em; -webkit-appearance: button; }
.gssb_i { background: rgb(238, 238, 238); }
.gss_ifl { visibility: hidden; padding-left: 5px; }
.gssb_i .gss_ifl { visibility: visible; }
a.gssb_j { font-size: 13px; color: rgb(51, 102, 204); text-decoration: none; line-height: 100%; }
a.gssb_j:hover { text-decoration: underline; }
.gssb_l { height: 1px; background-color: rgb(229, 229, 229); }
.gssb_m { color: rgb(0, 0, 0); background: rgb(255, 255, 255); }
.gsfe_a { border-width: 1px; border-style: solid; border-color: rgb(160, 160, 160) rgb(185, 185, 185) rgb(185, 185, 185); border-image: initial; box-shadow: rgba(0, 0, 0, 0.0980392) 0px 1px 2px inset; }
.gsfe_b { border: 1px solid rgb(77, 144, 254); outline: none; box-shadow: rgba(0, 0, 0, 0.298039) 0px 1px 2px inset; }
.gssb_a { padding: 0px 7px; }
.gssb_e { border: 0px; }
.gssb_l { margin: 5px 0px; }
#gsc-i-id1::-webkit-input-placeholder { font-size: 14px; }
#gsc-i-id1:focus::-webkit-input-placeholder { color: transparent; }
.gssb_c .gsc-completion-container { position: static; }
.gssb_c { z-index: 5000; }
.gsc-completion-container table { background: transparent; font-size: inherit; font-family: inherit; }
.gssb_a table, .gssb_a table tr, .gssb_a table tr td { padding: 0px; margin: 0px; border: 0px; }
#menufication-top { animation-duration: 0.001s; animation-name: insQ_100; }
.fancybox-margin { margin-right: 0px; }
.st0 { fill: rgb(255, 255, 255); }
.st0 { fill: rgb(255, 255, 255); }
.cls-1 { fill: rgb(255, 255, 255); }
.cls-1 { fill: rgb(255, 255, 255); stroke: rgb(255, 255, 255); stroke-miterlimit: 10; stroke-width: 2.5px; }
.recommended-groups-wrapper { display: none; }
.subscribed-groups-wrapper { display: none; }
.group-combine-wrapper { display: none; }
.expert-chat-wrapper { display: none; }
#subscribePopup::before { content: none; }
.password-field { display: none; }
			]]>
	</style>
</defs>
<title>parenting</title>
<path fill="#8675A1" d="M957.186,797.072c-51.447,0-99.425-42.499-106.909-94.915l-16.527-118.832
	c-1.258-9.089,5.09-17.477,14.179-18.735c9.088-1.258,17.477,5.09,18.734,14.179l16.527,118.761
	c5.69,39.714,42.925,66.44,74.138,66.44c31.969,0,71.115-27.931,76.215-67.998l14.379-116.944
	c1.115-9.068,9.371-15.517,18.44-14.402c9.069,1.115,15.518,9.371,14.402,18.44l-14.379,117.015
	C1059.562,752.685,1009.625,797.072,957.186,797.072z"/>
<path fill="#8675A1" d="M429.511,312.369c-85.437-0.013-154.686-69.284-154.673-154.721C274.851,72.211,344.122,2.962,429.559,2.975
	c85.427,0.013,154.673,69.27,154.673,154.697C584.153,243.085,514.925,312.304,429.511,312.369z M429.511,36.125
	c-67.168,0-121.618,54.45-121.618,121.618c0,67.168,54.45,121.619,121.618,121.619s121.619-54.45,121.619-121.619l0,0
	c-0.026-67.168-54.45-121.624-121.619-121.689V36.125z"/>
<path fill="#8675A1" d="M435.13,780.64c-57.563,0-109.695-49.583-116.211-110.38l-32.134-303.657
	c-0.965-9.089,5.621-17.238,14.709-18.204c9.089-0.965,17.239,5.621,18.204,14.71l32.134,303.704
	c5.17,48.331,47.221,80.796,83.298,80.796c36.479,0,78.931-32.583,84.007-81.056l31.426-303.35
	c1.674-8.974,10.305-14.891,19.278-13.217c7.943,1.481,13.651,8.49,13.494,16.569l-31.309,303.373
	C545.558,730.986,493.188,780.64,435.13,780.64z"/>
<path fill="#8675A1" d="M1049.739,597.586H856.675c-13.302-0.019-26.173-4.716-36.36-13.27L565.65,383.484
	c-1.905-1.125-4.018-1.855-6.21-2.148H310.773c-9.648-0.292-18.972-3.549-26.704-9.326L58.729,192.97
	c-7.172-5.685-8.377-16.108-2.691-23.28c5.685-7.172,16.108-8.377,23.28-2.692L304.729,346.18c1.88,1.124,3.968,1.855,6.139,2.148
	h248.597c9.629,0.291,18.939,3.521,26.68,9.255L841.14,558.676c4.305,3.727,9.794,5.802,15.488,5.855h193.064
	c2.935-0.01,5.842-0.57,8.57-1.653l141.854-122.775c6.91-5.979,17.359-5.223,23.339,1.688c5.979,6.911,5.223,17.36-1.688,23.339
	l-147.213,126.624C1066.833,595.558,1058.347,597.552,1049.739,597.586z"/>
<path fill="#8675A1" d="M957.232,530.319c-6.821-0.009-13.632-0.53-20.376-1.559c-71.471-11.126-120.391-78.083-109.265-149.555
	c11.125-71.471,78.083-120.391,149.554-109.265c71.472,11.125,120.392,78.083,109.266,149.554
	C1076.495,483.194,1021.699,530.205,957.232,530.319z M957.232,302.335c-53.854-0.011-97.52,43.64-97.529,97.494
	c-0.001,5.209,0.415,10.41,1.245,15.554c6.281,40.586,40.28,74.491,80.867,80.653c33.467,5.181,67.242-7.249,89.366-32.89
	c18.775-21.789,26.906-50.792,22.194-79.166c-6.305-40.516-40.304-74.374-80.844-80.513
	C967.468,302.715,962.354,302.336,957.232,302.335z"/>
</svg>
