<?xml version="1.0" standalone="no"?><!DOCTYPE svg PUBLIC "-//W3C//DTD SVG 1.1//EN" "http://www.w3.org/Graphics/SVG/1.1/DTD/svg11.dtd"><svg id="Layer_1" data-name="Layer 1" viewBox="0 0 500.18 338.83" class="center-block svg replaced-svg" version="1.1" xmlns="http://www.w3.org/2000/svg" xmlns:xlink="http://www.w3.org/1999/xlink"><defs xmlns="http://www.w3.org/1999/xhtml"><style type="text/css"><![CDATA[
.theiaStickySidebar::after { content: ""; display: table; clear: both; }
.gsc-control-cse { font-family: Arial, sans-serif; border-color: rgb(238, 238, 238); background-color: rgb(238, 238, 238); }
.gsc-control-cse .gsc-table-result { font-family: Arial, sans-serif; }
input.gsc-input { border-color: rgb(217, 217, 217); }
input.gsc-search-button { border-color: rgb(102, 102, 102); background-color: rgb(206, 206, 206); }
.gsc-tabHeader.gsc-tabhInactive { border-color: rgb(233, 233, 233); background-color: rgb(233, 233, 233); }
.gsc-tabHeader.gsc-tabhActive { border-top-color: rgb(255, 153, 0); border-left-color: rgb(233, 233, 233); border-right-color: rgb(233, 233, 233); background-color: rgb(255, 255, 255); }
.gsc-tabsArea { border-color: rgb(233, 233, 233); }
.gsc-webResult.gsc-result, .gsc-results .gsc-imageResult { border-color: rgb(255, 255, 255); background-color: rgb(255, 255, 255); }
.gsc-webResult.gsc-result:hover, .gsc-imageResult:hover { border-color: rgb(255, 255, 255); background-color: rgb(255, 255, 255); }
.gsc-webResult.gsc-result.gsc-promotion:hover { border-color: rgb(255, 255, 255); background-color: rgb(255, 255, 255); }
.gs-webResult.gs-result a.gs-title:link, .gs-webResult.gs-result a.gs-title:link b, .gs-imageResult a.gs-title:link, .gs-imageResult a.gs-title:link b { color: rgb(0, 0, 204); }
.gs-webResult.gs-result a.gs-title:visited, .gs-webResult.gs-result a.gs-title:visited b, .gs-imageResult a.gs-title:visited, .gs-imageResult a.gs-title:visited b { color: rgb(0, 0, 204); }
.gs-webResult.gs-result a.gs-title:hover, .gs-webResult.gs-result a.gs-title:hover b, .gs-imageResult a.gs-title:hover, .gs-imageResult a.gs-title:hover b { color: rgb(0, 0, 204); }
.gs-webResult.gs-result a.gs-title:active, .gs-webResult.gs-result a.gs-title:active b, .gs-imageResult a.gs-title:active, .gs-imageResult a.gs-title:active b { color: rgb(0, 0, 204); }
.gsc-cursor-page { color: rgb(0, 0, 204); }
a.gsc-trailing-more-results:link { color: rgb(0, 0, 204); }
.gs-webResult .gs-snippet, .gs-imageResult .gs-snippet, .gs-fileFormatType { color: rgb(0, 0, 0); }
.gs-webResult div.gs-visibleUrl, .gs-imageResult div.gs-visibleUrl { color: rgb(0, 128, 0); }
.gs-webResult div.gs-visibleUrl-short { color: rgb(0, 128, 0); }
.gs-webResult div.gs-visibleUrl-short { display: none; }
.gs-webResult div.gs-visibleUrl-long { display: block; }
.gs-promotion div.gs-visibleUrl-short { display: none; }
.gs-promotion div.gs-visibleUrl-long { display: block; }
.gsc-cursor-box { border-color: rgb(255, 255, 255); }
.gsc-results .gsc-cursor-box .gsc-cursor-page { border-color: rgb(233, 233, 233); background-color: rgb(255, 255, 255); color: rgb(0, 0, 204); }
.gsc-results .gsc-cursor-box .gsc-cursor-current-page { border-color: rgb(255, 153, 0); background-color: rgb(255, 255, 255); color: rgb(0, 0, 204); }
.gsc-webResult.gsc-result.gsc-promotion { border-color: rgb(51, 102, 153); background-color: rgb(255, 255, 255); }
.gsc-completion-title { color: rgb(0, 0, 204); }
.gsc-completion-snippet { color: rgb(0, 0, 0); }
.gs-promotion a.gs-title:link, .gs-promotion a.gs-title:link *, .gs-promotion .gs-snippet a:link { color: rgb(0, 0, 204); }
.gs-promotion a.gs-title:visited, .gs-promotion a.gs-title:visited *, .gs-promotion .gs-snippet a:visited { color: rgb(0, 0, 204); }
.gs-promotion a.gs-title:hover, .gs-promotion a.gs-title:hover *, .gs-promotion .gs-snippet a:hover { color: rgb(0, 0, 204); }
.gs-promotion a.gs-title:active, .gs-promotion a.gs-title:active *, .gs-promotion .gs-snippet a:active { color: rgb(0, 0, 204); }
.gs-promotion .gs-snippet, .gs-promotion .gs-title .gs-promotion-title-right, .gs-promotion .gs-title .gs-promotion-title-right * { color: rgb(0, 0, 0); }
.gs-promotion .gs-visibleUrl, .gs-promotion .gs-visibleUrl-short { color: rgb(0, 128, 0); }
.gscb_a { display: inline-block; font-style: normal; font-variant: normal; font-weight: normal; font-stretch: normal; font-size: 27px; line-height: 13px; font-family: arial, sans-serif; }
.gsst_a .gscb_a { color: rgb(161, 185, 237); cursor: pointer; }
.gsst_a:hover .gscb_a, .gsst_a:focus .gscb_a { color: rgb(51, 102, 204); }
.gsst_a { display: inline-block; }
.gsst_a { cursor: pointer; padding: 0px 4px; }
.gsst_a:hover { text-decoration: none !important; }
.gsst_b { font-size: 16px; padding: 0px 2px; position: relative; user-select: none; white-space: nowrap; }
.gsst_e { opacity: 0.55; }
.gsst_a:hover .gsst_e, .gsst_a:focus .gsst_e { opacity: 0.72; }
.gsst_a:active .gsst_e { opacity: 1; }
.gsst_f { background: white; text-align: left; }
.gsst_g { background-color: white; border-width: 1px; border-style: solid; border-color: rgb(217, 217, 217) rgb(204, 204, 204) rgb(204, 204, 204); border-image: initial; box-shadow: rgba(0, 0, 0, 0.2) 0px 2px 4px; margin: -1px -3px; padding: 0px 6px; }
.gsst_h { background-color: white; height: 1px; margin-bottom: -1px; position: relative; top: -1px; }
.gsib_a { width: 100%; padding: 4px 6px 0px; }
.gsib_a, .gsib_b { vertical-align: top; }
.gssb_c { border: 0px; position: absolute; z-index: 989; }
.gssb_e { border-width: 1px; border-style: solid; border-color: rgb(217, 217, 217) rgb(204, 204, 204) rgb(204, 204, 204); border-image: initial; box-shadow: rgba(0, 0, 0, 0.2) 0px 2px 4px; cursor: default; }
.gssb_f { visibility: hidden; white-space: nowrap; }
.gssb_k { border: 0px; display: block; position: absolute; top: 0px; z-index: 988; }
.gsdd_a { border: none !important; }
.gsq_a { padding: 0px; }
.gsq_a { padding: 0px; }
.gscsep_a { display: none; }
.gssb_a { padding: 0px 7px; }
.gssb_a, .gssb_a td { white-space: nowrap; overflow: hidden; line-height: 22px; }
#gssb_b { font-size: 11px; color: rgb(51, 102, 204); text-decoration: none; }
#gssb_b:hover { font-size: 11px; color: rgb(51, 102, 204); text-decoration: underline; }
.gssb_g { text-align: center; padding: 8px 0px 7px; position: relative; }
.gssb_h { font-size: 15px; height: 28px; margin: 0.2em; -webkit-appearance: button; }
.gssb_i { background: rgb(238, 238, 238); }
.gss_ifl { visibility: hidden; padding-left: 5px; }
.gssb_i .gss_ifl { visibility: visible; }
a.gssb_j { font-size: 13px; color: rgb(51, 102, 204); text-decoration: none; line-height: 100%; }
a.gssb_j:hover { text-decoration: underline; }
.gssb_l { height: 1px; background-color: rgb(229, 229, 229); }
.gssb_m { color: rgb(0, 0, 0); background: rgb(255, 255, 255); }
.gsfe_a { border-width: 1px; border-style: solid; border-color: rgb(160, 160, 160) rgb(185, 185, 185) rgb(185, 185, 185); border-image: initial; box-shadow: rgba(0, 0, 0, 0.0980392) 0px 1px 2px inset; }
.gsfe_b { border: 1px solid rgb(77, 144, 254); outline: none; box-shadow: rgba(0, 0, 0, 0.298039) 0px 1px 2px inset; }
.gssb_a { padding: 0px 7px; }
.gssb_e { border: 0px; }
.gssb_l { margin: 5px 0px; }
#gsc-i-id1::-webkit-input-placeholder { font-size: 14px; }
#gsc-i-id1:focus::-webkit-input-placeholder { color: transparent; }
.gssb_c .gsc-completion-container { position: static; }
.gssb_c { z-index: 5000; }
.gsc-completion-container table { background: transparent; font-size: inherit; font-family: inherit; }
.gssb_a table, .gssb_a table tr, .gssb_a table tr td { padding: 0px; margin: 0px; border: 0px; }
#menufication-top { animation-duration: 0.001s; animation-name: insQ_100; }
.fancybox-margin { margin-right: 0px; }
.st0 { fill: rgb(255, 255, 255); }
.st0 { fill: rgb(255, 255, 255); }
.cls-1 { fill: rgb(255, 255, 255); }
.cls-1 { fill: rgb(255, 255, 255); stroke: rgb(255, 255, 255); stroke-miterlimit: 10; stroke-width: 2.5px; }
.recommended-groups-wrapper { display: none; }
.subscribed-groups-wrapper { display: none; }
.group-combine-wrapper { display: none; }
.expert-chat-wrapper { display: none; }
#subscribePopup::before { content: none; }
.password-field { display: none; }]]></style></defs><defs><style>.cls-1{fill:#fff;stroke:#fff;stroke-miterlimit:10;stroke-width:2.5px;}</style></defs><title>parenting</title><path class="cls-1" d="M384.34,418.17c-21.79,0-42.11-18-45.28-40.2l-7-50.33A7,7,0,1,1,346,325.71l7,50.3c2.41,16.82,18.18,28.14,31.4,28.14,13.54,0,30.12-11.83,32.28-28.8l6.09-49.53a7,7,0,1,1,13.91,1.71l-6.09,49.56C427.7,399.37,406.55,418.17,384.34,418.17Z" transform="translate(0.09 -80.58)"/><path class="cls-1" d="M160.85,212.88a65.52,65.52,0,1,1,65.53-65.52A65.58,65.58,0,0,1,160.85,212.88Zm0-117a51.51,51.51,0,1,0,51.51,51.51A51.56,51.56,0,0,0,160.85,95.85Z" transform="translate(0.09 -80.58)"/><path class="cls-1" d="M163.23,411.21c-24.38,0-46.46-21-49.22-46.75L100.4,235.85a7,7,0,1,1,13.94-1.48L127.95,363c2.19,20.47,20,34.22,35.28,34.22,15.45,0,33.43-13.8,35.58-34.33l13.31-128.48A7,7,0,0,1,226,235.83L212.74,364.32C210,390.18,187.82,411.21,163.23,411.21Z" transform="translate(0.09 -80.58)"/><path class="cls-1" d="M423.54,333.68H341.77a24,24,0,0,1-15.4-5.62L218.51,243a7,7,0,0,0-2.63-.91H110.56a19.9,19.9,0,0,1-11.31-3.95L3.81,162.31a7,7,0,1,1,8.72-11L108,227.2a6.85,6.85,0,0,0,2.6.91H215.89a20,20,0,0,1,11.3,3.92l108,85.17a10.17,10.17,0,0,0,6.56,2.48h81.77a9.93,9.93,0,0,0,3.63-.7l60.08-52a7,7,0,1,1,9.17,10.6l-62.35,53.63A24,24,0,0,1,423.54,333.68Z" transform="translate(0.09 -80.58)"/><path class="cls-1" d="M384.36,305.19a57.75,57.75,0,0,1-8.63-.66,55.47,55.47,0,1,1,8.63.66Zm0-96.56a41.3,41.3,0,0,0-40.78,47.88c2.66,17.19,17.06,31.55,34.25,34.16a41.59,41.59,0,0,0,37.85-13.93,41.06,41.06,0,0,0,9.4-33.53c-2.67-17.16-17.07-31.5-34.24-34.1A44.12,44.12,0,0,0,384.36,208.63Z" transform="translate(0.09 -80.58)"/></svg>