<?xml version="1.0" encoding="utf-8"?>
<!-- Generator: Adobe Illustrator 16.0.0, SVG Export Plug-In . SVG Version: 6.00 Build 0)  -->
<!DOCTYPE svg PUBLIC "-//W3C//DTD SVG 1.1//EN" "http://www.w3.org/Graphics/SVG/1.1/DTD/svg11.dtd">
<svg version="1.1" id="Layer_1" xmlns="http://www.w3.org/2000/svg" xmlns:xlink="http://www.w3.org/1999/xlink" x="0px" y="0px"
	 width="1280px" height="800px" viewBox="0 0 1280 800" enable-background="new 0 0 1280 800" xml:space="preserve">
<path fill="#8676A2" d="M996.626,620.452c-19.437-47.539-47.27-90.24-82.727-126.92c-35.515-36.739-76.896-65.596-122.995-85.766
	c-12.736-5.572-25.687-10.406-38.817-14.51c12.546-8.316,24.314-18.086,35.098-29.241c39.039-40.385,60.54-94.02,60.54-151.022
	c0-57.002-21.501-110.636-60.54-151.022C747.919,21.352,695.648-1.019,640-1.019c-55.648,0-107.919,22.37-147.185,62.989
	c-39.04,40.386-60.54,94.02-60.54,151.022c0,57.003,21.5,110.637,60.54,151.022c10.783,11.155,22.552,20.925,35.098,29.242
	c-13.131,4.104-26.08,8.937-38.816,14.509c-46.1,20.17-87.481,49.026-122.996,85.766c-35.457,36.68-63.29,79.381-82.727,126.92
	c-20.105,49.173-30.3,101.386-30.3,155.187v25.38h773.85v-25.38C1026.925,721.838,1016.73,669.625,996.626,620.452z
	 M483.035,212.993c0-90.018,70.414-163.252,156.965-163.252s156.965,73.235,156.965,163.252
	c0,90.018-70.414,163.253-156.965,163.253S483.035,303.011,483.035,212.993z M304.715,750.259
	C317.286,569.818,462.862,427.006,640,427.006s322.713,142.813,335.284,323.253H304.715z"/>
</svg>
